<?xml version="1.0" encoding="utf-8"?>
<!-- Generator: Adobe Illustrator 19.0.0, SVG Export Plug-In . SVG Version: 6.00 Build 0)  -->
<svg version="1.1" id="Layer_1" xmlns="http://www.w3.org/2000/svg" xmlns:xlink="http://www.w3.org/1999/xlink" x="0px" y="0px"
	 viewBox="0 0 60 60" xml:space="preserve">
<style type="text/css">
	.st0{fill:#7b868a;}
</style>
<g id="XMLID_2_" transform="translate(-18, -18)" >
	<path id="XMLID_8_" class="st0" d="M24,54c0,13.2,10.8,24,24,24s24-10.8,24-24h-6c0,9.9-8.1,18-18,18s-18-8.1-18-18
		c0-9.9,8.1-18,18-18v12l15-15L48,18v12C34.8,30,24,40.8,24,54z M44.5,63H42v-9.8l-3,0.9V52l5.3-1.9h0.3V63z M57.3,57.8
		c0,0.9-0.1,1.8-0.3,2.4c-0.2,0.6-0.5,1.2-0.9,1.6c-0.4,0.5-0.9,0.8-1.3,1.1c-0.5,0.3-1,0.3-1.8,0.3s-1.2-0.2-1.8-0.3
		c-0.6-0.2-1.1-0.6-1.4-1.1s-0.8-1-0.9-1.6c-0.2-0.6-0.3-1.5-0.3-2.4v-2.3c0-0.9,0.2-1.8,0.3-2.4c0.1-0.6,0.4-1.2,0.9-1.6
		s0.9-0.8,1.4-1c0.4-0.3,1-0.3,1.8-0.3s1.2,0.2,1.8,0.3c0.6,0.1,1,0.6,1.3,1c0.3,0.5,0.8,1,0.9,1.6c0.2,0.6,0.3,1.5,0.3,2.4V57.8z
		 M54.8,55.2c0-0.6,0-1-0.2-1.5c-0.1-0.5-0.1-0.8-0.3-0.9c-0.1-0.1-0.3-0.5-0.6-0.5s-0.5-0.1-0.8-0.1s-0.6,0-0.8,0.1
		c-0.2,0.2-0.5,0.3-0.6,0.5c-0.1,0.2-0.3,0.6-0.3,0.9s-0.1,0.9-0.1,1.5V58c0,0.6,0,1,0.1,1.5c0.2,0.5,0.2,0.8,0.3,0.9
		c0.2,0.1,0.3,0.5,0.6,0.5S52.7,61,53,61s0.6,0,0.8-0.1c0.1-0.2,0.5-0.3,0.6-0.5c0.2-0.2,0.3-0.6,0.3-0.9s0.2-0.9,0.2-1.5V55.2z"/>
</g>
</svg>
