<?xml version="1.0" encoding="utf-8"?>
<!-- Generator: Adobe Illustrator 19.0.0, SVG Export Plug-In . SVG Version: 6.00 Build 0)  -->
<svg version="1.1" id="Layer_1" xmlns="http://www.w3.org/2000/svg" xmlns:xlink="http://www.w3.org/1999/xlink" x="0px" y="0px"
	 viewBox="0 0 60 60" xml:space="preserve">
<style type="text/css">
	.st0{fill:#7b868a;}
</style>
<g id="XMLID_2_" transform="translate(-18, -18)" >
	<path id="XMLID_8_" class="st0" d="M48,30V18L33,33l15,15V36c9.9,0,18,8.1,18,18s-8.1,18-18,18s-18-8.1-18-18h-6
		c0,13.2,10.8,24,24,24s24-10.8,24-24S61.2,30,48,30z M44.7,63h-2.5v-9.8l-3,0.9V52l5.3-1.9h0.3V63z M57.5,57.8
		c0,0.9-0.2,1.8-0.3,2.4c-0.2,0.6-0.5,1.2-0.9,1.6s-0.9,0.8-1.3,1.1c-0.5,0.3-1.1,0.3-1.8,0.3s-1.2-0.2-1.8-0.3
		c-0.6-0.2-1-0.6-1.3-1.1s-0.8-1-0.9-1.6c-0.2-0.6-0.3-1.5-0.3-2.4v-2.3c0-0.9,0.1-1.8,0.3-2.4c0.2-0.6,0.5-1.2,0.9-1.6
		s0.9-0.8,1.3-1c0.5-0.3,1-0.3,1.8-0.3s1.2,0.2,1.8,0.3c0.6,0.1,1,0.6,1.3,1s0.8,1,0.9,1.6c0.1,0.6,0.3,1.5,0.3,2.4V57.8z M55,55.2
		c0-0.6,0-1-0.1-1.5c-0.2-0.5-0.2-0.8-0.3-0.9c-0.1-0.1-0.3-0.5-0.6-0.5s-0.5-0.1-0.8-0.1s-0.6,0-0.8,0.1c-0.2,0.2-0.5,0.3-0.6,0.5
		c-0.2,0.2-0.3,0.6-0.3,0.9s-0.1,0.9-0.1,1.5V58c0,0.6,0,1,0.1,1.5c0.2,0.5,0.2,0.8,0.3,0.9c0.1,0.1,0.3,0.5,0.6,0.5S53,61,53.3,61
		s0.6,0,0.8-0.1c0.2-0.2,0.5-0.3,0.6-0.5c0.2-0.2,0.3-0.6,0.3-0.9S55,58.7,55,58V55.2z"/>
</g>
</svg>
